<svg aria-hidden="true" style="position:absolute;width:0;height:0" xmlns="http://www.w3.org/2000/svg" overflow="hidden">
    <defs>
        <symbol id="icon-user" viewBox="0 0 30 32">
            <path fill="#737374" style="fill: var(--color1, #737374)" d="M19.6 19c-1.794 0-2.656 1-5.6 1s-3.8-1-5.6-1c-4.638 0-8.4 3.762-8.4 8.4v1.6c0 1.656 1.344 3 3 3h22c1.656 0 3-1.344 3-3v-1.6c0-4.637-3.762-8.4-8.4-8.4zM25 29h-22v-1.6c0-2.975 2.425-5.4 5.4-5.4 0.912 0 2.394 1 5.6 1 3.231 0 4.681-1 5.6-1 2.975 0 5.4 2.425 5.4 5.4v1.6zM14 18c4.969 0 9-4.031 9-9s-4.031-9-9-9c-4.969 0-9 4.031-9 9s4.031 9 9 9zM14 3c3.306 0 6 2.694 6 6s-2.694 6-6 6c-3.306 0-6-2.694-6-6s2.694-6 6-6z"></path>
        </symbol>
        <symbol id="icon-clock" viewBox="0 0 30 32">
            <path fill="#737374" style="fill: var(--color1, #737374)" d="M14.933 0.729c-7.992 0-14.467 6.589-14.467 14.72s6.475 14.72 14.467 14.72c7.992 0 14.467-6.589 14.467-14.72s-6.475-14.72-14.467-14.72zM14.933 27.321c-6.446 0-11.667-5.312-11.667-11.871s5.221-11.871 11.667-11.871c6.446 0 11.667 5.312 11.667 11.871s-5.221 11.871-11.667 11.871zM18.538 21.124l-4.953-3.662c-0.181-0.137-0.286-0.35-0.286-0.576v-9.746c0-0.392 0.315-0.712 0.7-0.712h1.867c0.385 0 0.7 0.321 0.7 0.712v8.411l3.897 2.885c0.315 0.232 0.379 0.677 0.152 0.997l-1.097 1.537c-0.227 0.315-0.665 0.386-0.98 0.154z"></path>
        </symbol>
        <symbol id="icon-drop" viewBox="0 0 21 32">
            <path d="M3.501 0.254l-1.44 1.431c-0.341 0.339-0.341 0.888 0 1.226l13.145 13.089-13.145 13.089c-0.341 0.339-0.341 0.888 0 1.226l1.44 1.431c0.341 0.339 0.894 0.339 1.235 0l15.234-15.133c0.341-0.339 0.341-0.888 0-1.226l-15.234-15.133c-0.341-0.339-0.894-0.339-1.235 0z"></path>
        </symbol>
        <symbol id="icon-Insta" viewBox="0 0 30 32">
            <path fill="#fff" style="fill: var(--color1, #fff)" d="M15.062 7.501c-4.273 0-7.72 3.468-7.72 7.767s3.447 7.767 7.72 7.767c4.273 0 7.72-3.468 7.72-7.767s-3.447-7.767-7.72-7.767zM15.062 20.318c-2.761 0-5.019-2.264-5.019-5.050s2.251-5.050 5.019-5.050c2.768 0 5.019 2.265 5.019 5.050s-2.258 5.050-5.019 5.050zM24.899 7.184c0 1.007-0.806 1.812-1.801 1.812-1.001 0-1.801-0.811-1.801-1.812s0.806-1.812 1.801-1.812c0.994 0 1.801 0.811 1.801 1.812zM30.012 9.022c-0.114-2.427-0.665-4.576-2.432-6.347-1.76-1.771-3.897-2.325-6.309-2.447-2.486-0.142-9.937-0.142-12.423 0-2.405 0.115-4.542 0.669-6.309 2.44s-2.311 3.921-2.432 6.347c-0.141 2.501-0.141 9.998 0 12.499 0.114 2.427 0.665 4.576 2.432 6.347s3.897 2.325 6.309 2.447c2.486 0.142 9.937 0.142 12.423 0 2.412-0.115 4.549-0.669 6.309-2.447 1.76-1.771 2.311-3.921 2.432-6.347 0.141-2.501 0.141-9.991 0-12.492zM26.8 24.198c-0.524 1.325-1.539 2.346-2.862 2.88-1.982 0.791-6.685 0.608-8.876 0.608s-6.9 0.176-8.876-0.608c-1.317-0.527-2.331-1.548-2.862-2.88-0.786-1.994-0.605-6.726-0.605-8.93s-0.175-6.942 0.605-8.93c0.524-1.325 1.539-2.346 2.862-2.88 1.982-0.791 6.685-0.608 8.876-0.608s6.9-0.176 8.876 0.608c1.317 0.527 2.331 1.548 2.862 2.88 0.786 1.994 0.605 6.726 0.605 8.93s0.181 6.942-0.605 8.93z"></path>
        </symbol>
        <symbol id="icon-Tg" viewBox="0 0 32 32">
            <path fill="#fff" style="fill: var(--color1, #fff)" d="M16 0.121c-8.319 0-15.059 6.78-15.059 15.147s6.74 15.147 15.059 15.147c8.319 0 15.059-6.779 15.059-15.147s-6.74-15.147-15.059-15.147zM23.396 10.498l-2.471 11.715c-0.182 0.831-0.674 1.032-1.36 0.641l-3.765-2.791-1.816 1.759c-0.2 0.202-0.37 0.373-0.759 0.373l0.267-3.854 6.977-6.34c0.304-0.269-0.067-0.421-0.468-0.153l-8.622 5.46-3.716-1.167c-0.808-0.257-0.826-0.812 0.17-1.203l14.518-5.631c0.674-0.244 1.263 0.165 1.044 1.191z"></path>
        </symbol>
        <symbol id="icon-Vector-1" viewBox="0 0 32 32">
            <path  style="fill: var(--color1, #fff)" d="M29.899 26.869l-5.997-6.032c1.445-2.098 2.168-4.438 2.168-7.016 0-1.676-0.323-3.28-0.971-4.81s-1.521-2.849-2.622-3.957-2.412-1.987-3.933-2.638c-1.521-0.651-3.115-0.976-4.782-0.976s-3.26 0.325-4.781 0.976c-1.521 0.651-2.832 1.53-3.934 2.638s-1.976 2.427-2.622 3.957c-0.647 1.53-0.97 3.133-0.97 4.81s0.323 3.279 0.97 4.809c0.647 1.53 1.521 2.848 2.622 3.956s2.413 1.987 3.934 2.638c1.521 0.65 3.115 0.976 4.781 0.976 2.564 0 4.89-0.727 6.976-2.181l5.996 6.014c0.42 0.445 0.943 0.668 1.573 0.668 0.606 0 1.131-0.223 1.573-0.668s0.664-0.973 0.664-1.582c0-0.621-0.215-1.149-0.647-1.583zM19.296 19.386c-1.532 1.542-3.377 2.313-5.533 2.313s-4-0.771-5.533-2.313-2.299-3.396-2.299-5.566c0-2.169 0.767-4.024 2.299-5.566s3.377-2.313 5.533-2.313c2.156 0 4 0.771 5.533 2.313s2.299 3.397 2.299 5.566c0 2.169-0.767 4.024-2.299 5.566z"></path>
        </symbol>
        <symbol id="icon-burger" viewBox="0 0 32 32">
            <path style="fill: var(--color2, #9a9d9f)" d="M31.143 8.979h-30.286c-0.473 0-0.857-0.286-0.857-0.638v-1.702c0-0.353 0.384-0.638 0.857-0.638h30.286c0.473 0 0.857 0.286 0.857 0.638v1.702c0 0.352-0.384 0.638-0.857 0.638zM31.143 17.489h-30.286c-0.473 0-0.857-0.286-0.857-0.638v-1.702c0-0.352 0.384-0.638 0.857-0.638h30.286c0.473 0 0.857 0.286 0.857 0.638v1.702c0 0.352-0.384 0.638-0.857 0.638zM31.143 26h-30.286c-0.473 0-0.857-0.286-0.857-0.638v-1.702c0-0.353 0.384-0.638 0.857-0.638h30.286c0.473 0 0.857 0.286 0.857 0.638v1.702c0 0.353-0.384 0.638-0.857 0.638z"></path>
        </symbol>
        <symbol id="icon-Vector" viewBox="0 0 32 32">
            <path  style="fill: var(--color1, #fff)" d="M14.551 2.679l-3.651 7.403-8.169 1.191c-1.465 0.212-2.052 2.018-0.99 3.053l5.91 5.759-1.398 8.135c-0.252 1.471 1.297 2.572 2.594 1.884l7.308-3.841 7.308 3.841c1.297 0.682 2.846-0.414 2.594-1.884l-1.398-8.135 5.91-5.759c1.062-1.034 0.475-2.84-0.99-3.053l-8.169-1.191-3.651-7.403c-0.654-1.32-2.55-1.336-3.21 0z"></path>
        </symbol>
        <symbol id="icon-Vk" viewBox="0 0 32 32">
            <path fill="#fff" style="fill: var(--color1, #fff)" d="M31.271 7.847c0.22-0.686 0-1.191-1.057-1.191h-3.499c-0.891 0-1.301 0.433-1.521 0.916 0 0-1.782 4.011-4.301 6.611-0.814 0.752-1.188 0.993-1.634 0.993-0.22 0-0.558-0.241-0.558-0.927v-6.403c0-0.823-0.249-1.191-0.986-1.191h-5.501c-0.558 0-0.891 0.384-0.891 0.741 0 0.779 1.259 0.96 1.39 3.155v4.762c0 1.042-0.202 1.234-0.648 1.234-1.188 0-4.075-4.027-5.786-8.636-0.345-0.894-0.683-1.256-1.58-1.256h-3.499c-0.998 0-1.2 0.433-1.2 0.916 0 0.856 1.188 5.108 5.531 10.726 2.893 3.835 6.968 5.914 10.675 5.914 2.228 0 2.501-0.461 2.501-1.256 0-3.665-0.202-4.011 0.915-4.011 0.517 0 1.408 0.241 3.487 2.090 2.376 2.195 2.768 3.177 4.099 3.177h3.499c0.998 0 1.503-0.461 1.212-1.372-0.665-1.915-5.162-5.854-5.364-6.117-0.517-0.614-0.368-0.889 0-1.437 0.006-0.005 4.277-5.558 4.717-7.44z"></path>
        </symbol>
        <symbol id="icon-Youtube-icon" viewBox="0 0 32 32">
            <path fill="#fff" style="fill: var(--color1, #fff)" d="M30.998 7.688c-0.364-1.379-1.437-2.465-2.799-2.834-2.469-0.67-12.369-0.67-12.369-0.67s-9.9 0-12.369 0.67c-1.362 0.369-2.435 1.455-2.799 2.834-0.662 2.5-0.662 7.715-0.662 7.715s0 5.215 0.662 7.715c0.364 1.379 1.437 2.42 2.799 2.788 2.469 0.67 12.369 0.67 12.369 0.67s9.9 0 12.369-0.67c1.362-0.369 2.435-1.41 2.799-2.788 0.662-2.5 0.662-7.715 0.662-7.715s0-5.215-0.662-7.715zM12.592 20.138v-9.47l8.275 4.735-8.275 4.735z"></path>
        </symbol>
        <symbol id="icon-search" viewBox="0 0 32 32">
            <path  d="M31.781 29.306l-7.588-7.588c-0.144-0.144-0.331-0.219-0.531-0.219h-0.825c1.969-2.281 3.162-5.25 3.162-8.5 0-7.181-5.819-13-13-13s-13 5.819-13 13c0 7.181 5.819 13 13 13 3.25 0 6.219-1.194 8.5-3.162v0.825c0 0.2 0.081 0.388 0.219 0.531l7.588 7.588c0.294 0.294 0.769 0.294 1.062 0l1.413-1.413c0.294-0.294 0.294-0.769 0-1.062zM13 23c-5.525 0-10-4.475-10-10s4.475-10 10-10c5.525 0 10 4.475 10 10s-4.475 10-10 10z"></path>
        </symbol>
    </defs>
</svg>
